<svg width="35" height="35" viewBox="0 0 35 35" fill="none" xmlns="http://www.w3.org/2000/svg">
<path d="M3.56543 17.5348C3.56543 11.1482 3.56543 7.95493 5.54948 5.97086C7.53354 3.98682 10.7268 3.98682 17.1134 3.98682C23.4999 3.98682 26.6932 3.98682 28.6773 5.97086C30.6613 7.95493 30.6613 11.1482 30.6613 17.5348C30.6613 23.9213 30.6613 27.1146 28.6773 29.0987C26.6932 31.0827 23.4999 31.0827 17.1134 31.0827C10.7268 31.0827 7.53354 31.0827 5.54948 29.0987C3.56543 27.1146 3.56543 23.9213 3.56543 17.5348Z" stroke="white" stroke-width="2" stroke-linejoin="round"/>
<path d="M22.8177 11.8677H19.9393C18.4507 11.8677 17.2408 13.0686 17.2298 14.5572L17.1082 30.978M12.835 20.3891H22.3423" stroke="white" stroke-width="2" stroke-linecap="round" stroke-linejoin="round"/>
</svg>
