<svg width="36" height="34" viewBox="0 0 36 34" fill="none" xmlns="http://www.w3.org/2000/svg">
<path d="M10.8374 14.2368V23.9076" stroke="white" stroke-width="2" stroke-linecap="round" stroke-linejoin="round"/>
<path d="M16.5425 18.3814V23.9076M16.5425 18.3814C16.5425 16.0924 18.4579 14.2368 20.8208 14.2368C23.1837 14.2368 25.0991 16.0924 25.0991 18.3814V23.9076M16.5425 18.3814V14.2368" stroke="white" stroke-width="2" stroke-linecap="round" stroke-linejoin="round"/>
<path d="M10.8503 10.0923H10.8364" stroke="white" stroke-width="2" stroke-linecap="round" stroke-linejoin="round"/>
<path d="M4.42041 17.0001C4.42041 10.8131 4.42041 7.71959 6.40446 5.79753C8.38852 3.87549 11.5818 3.87549 17.9684 3.87549C24.3549 3.87549 27.5482 3.87549 29.5323 5.79753C31.5163 7.71959 31.5163 10.8131 31.5163 17.0001C31.5163 23.187 31.5163 26.2805 29.5323 28.2027C27.5482 30.1246 24.3549 30.1246 17.9684 30.1246C11.5818 30.1246 8.38852 30.1246 6.40446 28.2027C4.42041 26.2805 4.42041 23.187 4.42041 17.0001Z" stroke="white" stroke-width="2" stroke-linejoin="round"/>
</svg>
