<svg width="24" height="24" viewBox="0 0 24 24" fill="none" xmlns="http://www.w3.org/2000/svg">
<path fill-rule="evenodd" clip-rule="evenodd" d="M7.94694 3.34459C7.8608 2.82634 7.67343 2.33013 7.39552 1.8843C7.11761 1.43846 6.75461 1.05173 6.32724 0.746188C5.89987 0.440642 5.4165 0.222263 4.90474 0.103522C4.39298 -0.015219 3.86284 -0.0319973 3.34459 0.054144C2.82634 0.140285 2.33013 0.32766 1.8843 0.605569C1.43846 0.883479 1.05173 1.24648 0.746187 1.67385C0.440641 2.10122 0.222263 2.58458 0.103522 3.09635C-0.0152187 3.60811 -0.0319975 4.13825 0.0541439 4.6565L2.72063 20.6554C2.8946 21.7021 3.47722 22.6367 4.34033 23.2538C5.20344 23.8709 6.27633 24.1198 7.32298 23.9459C8.36963 23.7719 9.30431 23.1893 9.92138 22.3262C10.5385 21.463 10.7874 20.3902 10.6134 19.3435L7.94694 3.34459ZM21.2794 3.34459C21.1932 2.82634 21.0059 2.33013 20.7279 1.8843C20.45 1.43846 20.087 1.05173 19.6597 0.746188C19.2323 0.440642 18.7489 0.222263 18.2372 0.103522C17.7254 -0.015219 17.1953 -0.0319973 16.677 0.054144C16.1588 0.140285 15.6626 0.32766 15.2167 0.605569C14.7709 0.883479 14.3842 1.24648 14.0786 1.67385C13.7731 2.10122 13.5547 2.58458 13.436 3.09635C13.3172 3.60811 13.3004 4.13825 13.3866 4.6565L16.0531 20.6554C16.227 21.7021 16.8097 22.6367 17.6728 23.2538C18.1001 23.5594 18.5835 23.7777 19.0953 23.8965C19.607 24.0152 20.1372 24.032 20.6554 23.9459C21.1737 23.8597 21.6699 23.6723 22.1157 23.3944C22.5615 23.1165 22.9483 22.7535 23.2538 22.3262C23.5594 21.8988 23.7777 21.4154 23.8965 20.9037C24.0152 20.3919 24.032 19.8618 23.9459 19.3435L21.2794 3.34459Z" fill="#FBE7BE"/>
</svg>
