<svg width="117" height="18" viewBox="0 0 117 18" fill="none" xmlns="http://www.w3.org/2000/svg">
<path d="M1.82227 9.83398C1.86328 10.5664 2.03613 11.1611 2.34082 11.6182C2.9209 12.4736 3.94336 12.9014 5.4082 12.9014C6.06445 12.9014 6.66211 12.8076 7.20117 12.6201C8.24414 12.2568 8.76562 11.6064 8.76562 10.6689C8.76562 9.96582 8.5459 9.46484 8.10645 9.16602C7.66113 8.87305 6.96387 8.61816 6.01465 8.40137L4.26562 8.00586C3.12305 7.74805 2.31445 7.46387 1.83984 7.15332C1.01953 6.61426 0.609375 5.80859 0.609375 4.73633C0.609375 3.57617 1.01074 2.62402 1.81348 1.87988C2.61621 1.13574 3.75293 0.763672 5.22363 0.763672C6.57715 0.763672 7.72559 1.0918 8.66895 1.74805C9.61816 2.39844 10.0928 3.44141 10.0928 4.87695H8.44922C8.36133 4.18555 8.17383 3.65527 7.88672 3.28613C7.35352 2.6123 6.44824 2.27539 5.1709 2.27539C4.13965 2.27539 3.39844 2.49219 2.94727 2.92578C2.49609 3.35937 2.27051 3.86328 2.27051 4.4375C2.27051 5.07031 2.53418 5.5332 3.06152 5.82617C3.40723 6.01367 4.18945 6.24805 5.4082 6.5293L7.21875 6.94238C8.0918 7.1416 8.76562 7.41406 9.24023 7.75977C10.0605 8.36328 10.4707 9.23926 10.4707 10.3877C10.4707 11.8174 9.94922 12.8398 8.90625 13.4551C7.86914 14.0703 6.66211 14.3779 5.28516 14.3779C3.67969 14.3779 2.42285 13.9678 1.51465 13.1475C0.606445 12.333 0.161133 11.2285 0.178711 9.83398H1.82227ZM12.4746 4.63086H14.083V14H12.4746V4.63086ZM12.4746 1.08887H14.083V2.88184H12.4746V1.08887ZM19.8047 4.41992C20.543 4.41992 21.1875 4.60156 21.7383 4.96484C22.0371 5.16992 22.3418 5.46875 22.6523 5.86133V4.6748H24.1113V13.2354C24.1113 14.4307 23.9355 15.374 23.584 16.0654C22.9277 17.3428 21.6885 17.9814 19.8662 17.9814C18.8525 17.9814 18 17.7529 17.3086 17.2959C16.6172 16.8447 16.2305 16.1357 16.1484 15.1689H17.7568C17.833 15.5908 17.9854 15.916 18.2139 16.1445C18.5713 16.4961 19.1338 16.6719 19.9014 16.6719C21.1143 16.6719 21.9082 16.2441 22.2832 15.3887C22.5059 14.8848 22.6084 13.9854 22.5908 12.6904C22.2744 13.1709 21.8936 13.5283 21.4482 13.7627C21.0029 13.9971 20.4141 14.1143 19.6816 14.1143C18.6621 14.1143 17.7686 13.7539 17.001 13.0332C16.2393 12.3066 15.8584 11.1084 15.8584 9.43848C15.8584 7.8623 16.2422 6.63184 17.0098 5.74707C17.7832 4.8623 18.7148 4.41992 19.8047 4.41992ZM22.6523 9.25391C22.6523 8.08789 22.4121 7.22363 21.9316 6.66113C21.4512 6.09863 20.8389 5.81738 20.0947 5.81738C18.9814 5.81738 18.2197 6.33887 17.8096 7.38184C17.5928 7.93848 17.4844 8.66797 17.4844 9.57031C17.4844 10.6309 17.6982 11.4395 18.126 11.9961C18.5596 12.5469 19.1396 12.8223 19.8662 12.8223C21.0029 12.8223 21.8027 12.3096 22.2656 11.2842C22.5234 10.7041 22.6523 10.0273 22.6523 9.25391ZM26.502 4.58691H28.0049V5.92285C28.4502 5.37207 28.9219 4.97656 29.4199 4.73633C29.918 4.49609 30.4717 4.37598 31.0811 4.37598C32.417 4.37598 33.3193 4.8418 33.7881 5.77344C34.0459 6.2832 34.1748 7.0127 34.1748 7.96191V14H32.5664V8.06738C32.5664 7.49316 32.4814 7.03027 32.3115 6.67871C32.0303 6.09277 31.5205 5.7998 30.7822 5.7998C30.4072 5.7998 30.0996 5.83789 29.8594 5.91406C29.4258 6.04297 29.0449 6.30078 28.7168 6.6875C28.4531 6.99805 28.2803 7.32031 28.1982 7.6543C28.1221 7.98242 28.084 8.4541 28.084 9.06934V14H26.502V4.58691ZM43.1133 4.58691V10.8359C43.1133 11.3164 43.1895 11.709 43.3418 12.0137C43.623 12.5762 44.1475 12.8574 44.915 12.8574C46.0166 12.8574 46.7666 12.3652 47.165 11.3809C47.3818 10.8535 47.4902 10.1299 47.4902 9.20996V4.58691H49.0723V14H47.5781L47.5957 12.6113C47.3906 12.9688 47.1357 13.2705 46.8311 13.5166C46.2275 14.0088 45.4951 14.2549 44.6338 14.2549C43.292 14.2549 42.3779 13.8066 41.8916 12.9102C41.6279 12.4297 41.4961 11.7881 41.4961 10.9854V4.58691H43.1133ZM55.5234 12.9365C56.2617 12.9365 56.874 12.6289 57.3604 12.0137C57.8525 11.3926 58.0986 10.4668 58.0986 9.23633C58.0986 8.48633 57.9902 7.8418 57.7734 7.30273C57.3633 6.26562 56.6133 5.74707 55.5234 5.74707C54.4277 5.74707 53.6777 6.29492 53.2734 7.39062C53.0566 7.97656 52.9482 8.7207 52.9482 9.62305C52.9482 10.3496 53.0566 10.9678 53.2734 11.4775C53.6836 12.4502 54.4336 12.9365 55.5234 12.9365ZM51.4277 4.63086H52.9658V5.87891C53.2822 5.45117 53.6279 5.12012 54.0029 4.88574C54.5361 4.53418 55.1631 4.3584 55.8838 4.3584C56.9502 4.3584 57.8555 4.76855 58.5996 5.58887C59.3438 6.40332 59.7158 7.56934 59.7158 9.08691C59.7158 11.1377 59.1797 12.6025 58.1074 13.4814C57.4277 14.0381 56.6367 14.3164 55.7344 14.3164C55.0254 14.3164 54.4307 14.1611 53.9502 13.8506C53.6689 13.6748 53.3555 13.373 53.0098 12.9453V17.7529H51.4277V4.63086ZM66.9756 3.1543C66.999 2.49805 67.1133 2.01758 67.3184 1.71289C67.6875 1.17383 68.3994 0.904297 69.4541 0.904297C69.5537 0.904297 69.6562 0.907227 69.7617 0.913086C69.8672 0.918945 69.9873 0.927734 70.1221 0.939453V2.38086C69.958 2.36914 69.8379 2.36328 69.7617 2.36328C69.6914 2.35742 69.624 2.35449 69.5596 2.35449C69.0791 2.35449 68.792 2.48047 68.6982 2.73242C68.6045 2.97852 68.5576 3.61133 68.5576 4.63086H70.1221V5.87891H68.54V14H66.9756V5.87891H65.666V4.63086H66.9756V3.1543ZM71.6338 4.58691H73.1367V6.21289C73.2598 5.89648 73.5615 5.5127 74.042 5.06152C74.5225 4.60449 75.0762 4.37598 75.7031 4.37598C75.7324 4.37598 75.7822 4.37891 75.8525 4.38477C75.9229 4.39062 76.043 4.40234 76.2129 4.41992V6.08984C76.1191 6.07227 76.0312 6.06055 75.9492 6.05469C75.873 6.04883 75.7881 6.0459 75.6943 6.0459C74.8975 6.0459 74.2852 6.30371 73.8574 6.81934C73.4297 7.3291 73.2158 7.91797 73.2158 8.58594V14H71.6338V4.58691ZM81.5039 4.37598C82.1719 4.37598 82.8193 4.53418 83.4463 4.85059C84.0732 5.16113 84.5508 5.56543 84.8789 6.06348C85.1953 6.53809 85.4062 7.0918 85.5117 7.72461C85.6055 8.1582 85.6523 8.84961 85.6523 9.79883H78.7529C78.7822 10.7539 79.0078 11.5215 79.4297 12.1016C79.8516 12.6758 80.5049 12.9629 81.3896 12.9629C82.2158 12.9629 82.875 12.6904 83.3672 12.1455C83.6484 11.8291 83.8477 11.4629 83.9648 11.0469H85.5205C85.4795 11.3926 85.3418 11.7793 85.1074 12.207C84.8789 12.6289 84.6211 12.9746 84.334 13.2441C83.8535 13.7129 83.2588 14.0293 82.5498 14.1934C82.1689 14.2871 81.7383 14.334 81.2578 14.334C80.0859 14.334 79.0928 13.9092 78.2783 13.0596C77.4639 12.2041 77.0566 11.0088 77.0566 9.47363C77.0566 7.96191 77.4668 6.73438 78.2871 5.79102C79.1074 4.84766 80.1797 4.37598 81.5039 4.37598ZM84.0264 8.54199C83.9619 7.85645 83.8125 7.30859 83.5781 6.89844C83.1445 6.13672 82.4209 5.75586 81.4072 5.75586C80.6807 5.75586 80.0713 6.01953 79.5791 6.54688C79.0869 7.06836 78.8262 7.7334 78.7969 8.54199H84.0264ZM91.5234 4.37598C92.1914 4.37598 92.8389 4.53418 93.4658 4.85059C94.0928 5.16113 94.5703 5.56543 94.8984 6.06348C95.2148 6.53809 95.4258 7.0918 95.5312 7.72461C95.625 8.1582 95.6719 8.84961 95.6719 9.79883H88.7725C88.8018 10.7539 89.0273 11.5215 89.4492 12.1016C89.8711 12.6758 90.5244 12.9629 91.4092 12.9629C92.2354 12.9629 92.8945 12.6904 93.3867 12.1455C93.668 11.8291 93.8672 11.4629 93.9844 11.0469H95.54C95.499 11.3926 95.3613 11.7793 95.127 12.207C94.8984 12.6289 94.6406 12.9746 94.3535 13.2441C93.873 13.7129 93.2783 14.0293 92.5693 14.1934C92.1885 14.2871 91.7578 14.334 91.2773 14.334C90.1055 14.334 89.1123 13.9092 88.2979 13.0596C87.4834 12.2041 87.0762 11.0088 87.0762 9.47363C87.0762 7.96191 87.4863 6.73438 88.3066 5.79102C89.127 4.84766 90.1992 4.37598 91.5234 4.37598ZM94.0459 8.54199C93.9814 7.85645 93.832 7.30859 93.5977 6.89844C93.1641 6.13672 92.4404 5.75586 91.4268 5.75586C90.7002 5.75586 90.0908 6.01953 89.5986 6.54688C89.1064 7.06836 88.8457 7.7334 88.8164 8.54199H94.0459ZM113.695 9.95C113.875 9.566 114.049 9.23 114.217 8.942C114.397 8.654 114.571 8.414 114.739 8.222H104.245V7.466H114.739C114.571 7.262 114.397 7.016 114.217 6.728C114.049 6.44 113.875 6.11 113.695 5.738H114.325C115.081 6.614 115.873 7.262 116.701 7.682V8.006C115.873 8.414 115.081 9.062 114.325 9.95H113.695Z" fill="white"/>
</svg>
